PathFileType	4	(X/Y/Z)	C:/Users/beibeiliu/ov580/test_trc/User3\sequence.14_training_dense_left.trc
DataRate	CameraRate	NumFrames	NumMarkers	Units	OrigDataRate	OrigDataStartFrame	OrigNumFrames
120	120	7	19	mm	120	185	246
Frame#	Time	ThumbCMC			ThumbMCP			ThumbIP			ThumbTip			IndexMCP			IndexPIP			IndexTip			MiddleMCP			MiddlePIP			MiddleTip			RingMCP			RingPIP			RingTip			PinkyMCP			PinkyPIP			PinkyTip			BackHand1			BackHand2			BackHand3	
		X0	Y0	Z0	X1	Y1	Z1	X2	Y2	Z2	X3	Y3	Z3	X4	Y4	Z4	X5	Y5	Z5	X6	Y6	Z6	X7	Y7	Z7	X8	Y8	Z8	X9	Y9	Z9	X10	Y10	Z10	X11	Y11	Z11	X12	Y12	Z12	X13	Y13	Z13	X14	Y14	Z14	X15	Y15	Z15	X16	Y16	Z16	X17	Y17	Z17	X18	Y18	Z18	
184	1.53333	-208.41	-0.854949	0.981843	-204.638	23.438	-12.9528	-193.32	44.8894	-27.0436	-187.784	61.2137	-35.3583	-135.736	3.49433	-28.0135	-117.003	21.9238	-35.8273	-95.7063	38.5404	-35.9782	-116.276	-14.3599	-18.7463	-96.788	-0.0786682	-28.0391	-69.4077	18.6716	-28.6213	-111.483	-27.2144	4.36735	-89.8966	-17.3192	2.82679	-63.7882	-2.9096	7.46084	-115.516	-35.301	31.1093	-96.8527	-24.8808	35.12	-78.6653	-16.4947	45.9161	-164.481	-49.1619	11.4468	-190.35	-56.9695	26.0209	-189.886	-32.5092	-2.22175	
185	1.54167	-212.344	-0.948328	1.41248	-207.734	22.9765	-14.9487	-199.01	45.9076	-31.6498	-191.401	62.9148	-39.7677	-137.966	6.85794	-32.7834	-120.463	23.2517	-39.9142	-101.064	41.5916	-40.8942	-122.808	-10.8324	-24.8071	-98.6815	1.59579	-29.5391	-73.0166	21.4933	-31.7666	-118.085	-23.347	1.91104	-94.6607	-13.6029	-2.4333	-69.2304	2.65386	2.1972	-120.6	-30.9893	26.6757	-96.9415	-20.2061	35.5432	-80.9618	-9.62769	40.7739	-165.404	-47.0374	9.55877	-188.41	-54.2969	22.6656	-191.845	-30.9623	-3.75995	
186	1.55	-217.545	-2.18921	-2.07484	-212.594	22.0729	-16.897	-208.855	45.7055	-33.1156	-202.457	61.5652	-40.8035	-145.151	5.33169	-34.3431	-122.713	26.8087	-46.7846	-108.105	43.2398	-48.1669	-126.907	-12.6829	-23.9741	-101.572	4.87729	-36.5257	-77.2564	23.6702	-39.23	-116.914	-18.9022	-4.18642	-93.174	-10.6859	-4.30925	-68.7192	6.1556	-1.37443	-116.994	-28.0226	27.7663	-101.296	-16.4378	29.1383	-80.4411	-2.33849	33.5555	-164.978	-48.7188	12.6641	-188.29	-57.2433	22.0619	-196.915	-32.4494	-4.04514	
187	1.55833	-217.741	-6.91983	-0.0312463	-215.78	16.9127	-15.9377	-214.35	41.9632	-35.0037	-211.16	58.5774	-46.2848	-147.726	4.93032	-40.0536	-133.993	22.3614	-52.1782	-113.046	45.8538	-55.5494	-130.384	-9.62332	-32.2201	-106.554	2.82837	-39.8552	-84.6587	23.7665	-44.9483	-120.887	-18.0764	-8.9277	-98.7834	-7.36231	-11.2841	-76.994	6.85081	-8.34571	-119.117	-25.6407	24.6685	-102.018	-13.8859	28.6438	-84.3488	0.980522	32.564	-166.122	-44.0445	6.06514	-187.212	-57.5588	24.5618	-193.753	-36.7396	-4.55135	
188	1.56667	-223.098	-10.0254	-3.01103	-222.794	14.511	-20.6506	-221.023	36.9178	-39.2852	-216.965	54.8847	-50.5367	-155.428	2.01288	-44.0103	-141.283	20.5581	-57.4024	-121.233	42.2599	-61.5353	-135.547	-14.5193	-30.5001	-114.036	2.63861	-45.1669	-88.2815	27.2473	-53.6845	-123.888	-20.0466	-8.6551	-100.711	-7.92756	-12.8273	-79.9942	11.8117	-14.075	-121.234	-21.5714	19.507	-107.098	-11.6182	25.9907	-89.9726	3.17478	31.1024	-164.823	-49.3596	6.85265	-192.061	-60.3024	25.0971	-196.377	-39.4659	-6.86528	
189	1.575	-226.162	-13.0455	-3.98879	-223.499	9.42932	-20.1879	-229.473	31.6837	-39.4034	-228.213	50.285	-54.1668	-164.492	-1.44493	-47.0647	-147.571	18.4824	-62.9405	-132.673	39.3355	-69.4941	-140.73	-15.2388	-35.915	-117.971	-0.651871	-48.2682	-93.8219	23.0995	-56.7882	-128.5	-18.7791	-15.4846	-102.443	-6.68765	-17.0463	-83.5	13.3557	-20.4033	-123.69	-21.6346	17.2274	-111.191	-8.08951	18.9457	-91.7668	7.84024	23.0686	-173.258	-50.5689	5.4875	-193.084	-62.98	24.6103	-202.736	-40.186	-6.32148	
190	1.58333	-231.635	-15.616	-5.49657	-230.878	7.65769	-23.7688	-233.894	27.9846	-43.2632	-234.801	43.8674	-56.1542	-168.484	-4.57028	-48.3974	-151.539	13.0442	-63.5878	-137.44	37.4069	-74.997	-143.983	-17.0723	-39.8498	-122.821	-0.280622	-56.3259	-100.23	19.6993	-62.8214	-131.995	-21.8592	-12.9227	-110.707	-7.03732	-23.4497	-88.0093	11.8917	-23.5816	-131.371	-23.1207	13.3614	-112.687	-7.03655	14.0518	-92.748	8.79698	15.6726	-169.009	-49.6404	4.90282	-189.671	-62.0984	23.304	-207.998	-43.9968	-5.91414	
